<svg width="192" height="74" viewBox="0 0 192 74" fill="none" xmlns="http://www.w3.org/2000/svg">
<path d="M15.3906 0.125L30 41.375L44.5312 0.125H59.9219V57H48.1641V41.4531L49.3359 14.6172L33.9844 57H25.9375L10.625 14.6562L11.7969 41.4531V57H0.078125V0.125H15.3906ZM93.9062 57C93.3854 55.9844 93.0078 54.7214 92.7734 53.2109C90.0391 56.2578 86.4844 57.7812 82.1094 57.7812C77.9688 57.7812 74.5312 56.5833 71.7969 54.1875C69.0885 51.7917 67.7344 48.7708 67.7344 45.125C67.7344 40.6458 69.388 37.2083 72.6953 34.8125C76.0286 32.4167 80.8333 31.2057 87.1094 31.1797H92.3047V28.7578C92.3047 26.8047 91.7969 25.2422 90.7812 24.0703C89.7917 22.8984 88.2161 22.3125 86.0547 22.3125C84.1536 22.3125 82.6562 22.7682 81.5625 23.6797C80.4948 24.5911 79.9609 25.8411 79.9609 27.4297H68.6719C68.6719 24.9818 69.4271 22.7161 70.9375 20.6328C72.4479 18.5495 74.5833 16.9219 77.3438 15.75C80.1042 14.5521 83.2031 13.9531 86.6406 13.9531C91.849 13.9531 95.9766 15.2682 99.0234 17.8984C102.096 20.5026 103.633 24.1745 103.633 28.9141V47.2344C103.659 51.2448 104.219 54.2786 105.312 56.3359V57H93.9062ZM84.5703 49.1484C86.237 49.1484 87.7734 48.7839 89.1797 48.0547C90.5859 47.2995 91.6276 46.2969 92.3047 45.0469V37.7812H88.0859C82.4349 37.7812 79.4271 39.7344 79.0625 43.6406L79.0234 44.3047C79.0234 45.7109 79.5182 46.8698 80.5078 47.7812C81.4974 48.6927 82.8516 49.1484 84.5703 49.1484ZM150.352 36.2578C150.352 42.7682 148.867 47.9896 145.898 51.9219C142.956 55.8281 138.971 57.7812 133.945 57.7812C129.674 57.7812 126.224 56.2969 123.594 53.3281V73.25H112.305V14.7344H122.773L123.164 18.875C125.898 15.5938 129.466 13.9531 133.867 13.9531C139.076 13.9531 143.125 15.8802 146.016 19.7344C148.906 23.5885 150.352 28.901 150.352 35.6719V36.2578ZM139.062 35.4375C139.062 31.5052 138.359 28.4714 136.953 26.3359C135.573 24.2005 133.555 23.1328 130.898 23.1328C127.357 23.1328 124.922 24.487 123.594 27.1953V44.5C124.974 47.2865 127.435 48.6797 130.977 48.6797C136.367 48.6797 139.062 44.2656 139.062 35.4375ZM180.273 45.3203C180.273 43.9401 179.583 42.8594 178.203 42.0781C176.849 41.2708 174.661 40.5547 171.641 39.9297C161.589 37.8203 156.562 33.5495 156.562 27.1172C156.562 23.3672 158.112 20.2422 161.211 17.7422C164.336 15.2161 168.411 13.9531 173.438 13.9531C178.802 13.9531 183.086 15.2161 186.289 17.7422C189.518 20.2682 191.133 23.5495 191.133 27.5859H179.844C179.844 25.9714 179.323 24.6432 178.281 23.6016C177.24 22.5339 175.612 22 173.398 22C171.497 22 170.026 22.4297 168.984 23.2891C167.943 24.1484 167.422 25.2422 167.422 26.5703C167.422 27.8203 168.008 28.8359 169.18 29.6172C170.378 30.3724 172.383 31.0365 175.195 31.6094C178.008 32.1562 180.378 32.7812 182.305 33.4844C188.268 35.6719 191.25 39.4609 191.25 44.8516C191.25 48.7057 189.596 51.8307 186.289 54.2266C182.982 56.5964 178.711 57.7812 173.477 57.7812C169.935 57.7812 166.784 57.1562 164.023 55.9062C161.289 54.6302 159.141 52.8984 157.578 50.7109C156.016 48.4974 155.234 46.1146 155.234 43.5625H165.938C166.042 45.5677 166.784 47.1042 168.164 48.1719C169.544 49.2396 171.393 49.7734 173.711 49.7734C175.872 49.7734 177.5 49.3698 178.594 48.5625C179.714 47.7292 180.273 46.6484 180.273 45.3203Z" fill="black"/>
</svg>
